<?xml version="1.0" encoding="utf-8"?>
<!-- Generator: Adobe Illustrator 23.1.1, SVG Export Plug-In . SVG Version: 6.00 Build 0)  -->
<svg version="1.1" id="Layer_1" xmlns="http://www.w3.org/2000/svg" xmlns:xlink="http://www.w3.org/1999/xlink" x="0px" y="0px"
	 viewBox="0 0 254.4 89.4" style="enable-background:new 0 0 254.4 89.4;" xml:space="preserve">
<style type="text/css">
	.st0{fill:#3E64FF;}
	.st1{fill:#34E0C3;}
</style>
<g>
	<g>
		<path d="M111.3,53.8c-0.3-0.7-0.6-1.5-1.1-2.6s-1-2.2-1.6-3.5s-1.2-2.6-1.9-3.9c-0.6-1.4-1.2-2.6-1.8-3.8
			c-0.6-1.2-1.1-2.2-1.5-3.1c-0.4-0.9-0.8-1.5-1-1.9c-0.3,3.3-0.6,6.8-0.8,10.7c-0.2,3.8-0.4,7.9-0.5,12.1h-2.6
			c0.2-5,0.5-9.7,0.8-14.2s0.7-8.9,1.1-13h2.4c0.8,1.3,1.6,2.8,2.5,4.5s1.8,3.5,2.7,5.4c0.9,1.8,1.7,3.7,2.6,5.5
			c0.8,1.8,1.6,3.4,2.2,4.9c0.6-1.4,1.4-3.1,2.2-4.9s1.7-3.6,2.6-5.5c0.9-1.8,1.8-3.6,2.7-5.4c0.9-1.7,1.7-3.2,2.5-4.5h2.2
			c0.4,4.1,0.8,8.5,1.1,13c0.3,4.5,0.6,9.3,0.8,14.2H124c-0.2-4.2-0.3-8.3-0.5-12.1s-0.5-7.4-0.8-10.7c-0.2,0.4-0.5,1-1,1.9
			c-0.4,0.9-1,1.9-1.5,3.1s-1.2,2.4-1.8,3.8c-0.6,1.4-1.2,2.7-1.9,3.9s-1.1,2.4-1.6,3.5s-0.9,1.9-1.1,2.6
			C113.8,53.8,111.3,53.8,111.3,53.8z"/>
		<path d="M137.1,36.9c1.3,0,2.5,0.2,3.4,0.6c0.9,0.4,1.7,0.9,2.3,1.6c0.6,0.7,1,1.5,1.3,2.4s0.4,1.9,0.4,3v12.8
			c-0.3,0.1-0.6,0.2-1.1,0.3s-1.1,0.2-1.7,0.3c-0.7,0.1-1.4,0.2-2.2,0.3s-1.6,0.1-2.5,0.1c-1.1,0-2.1-0.1-3-0.4
			c-0.9-0.2-1.7-0.6-2.4-1.1s-1.2-1.2-1.6-2c-0.4-0.8-0.6-1.8-0.6-2.9c0-1.1,0.2-2,0.6-2.8c0.4-0.8,1-1.4,1.8-1.9s1.7-0.9,2.7-1.1
			c1-0.2,2.2-0.4,3.4-0.4c0.4,0,0.8,0,1.2,0.1c0.4,0,0.8,0.1,1.2,0.2c0.4,0.1,0.7,0.1,1,0.2s0.5,0.1,0.6,0.2v-1.3
			c0-0.7-0.1-1.4-0.2-2.1s-0.3-1.3-0.7-1.8s-0.9-1-1.5-1.3s-1.5-0.5-2.5-0.5c-1.5,0-2.6,0.1-3.3,0.3s-1.3,0.4-1.6,0.5l-0.4-2.2
			c0.4-0.2,1.1-0.4,2.1-0.6C134.7,37,135.8,36.9,137.1,36.9z M137.3,55.8c1,0,1.9,0,2.6-0.1c0.7-0.1,1.4-0.2,1.9-0.3v-7.2
			c-0.3-0.1-0.7-0.3-1.4-0.4c-0.6-0.1-1.5-0.2-2.6-0.2c-0.6,0-1.3,0-2,0.1s-1.3,0.3-1.9,0.6s-1,0.7-1.4,1.2s-0.6,1.2-0.6,2.1
			c0,0.8,0.1,1.4,0.4,1.9c0.2,0.5,0.6,0.9,1.1,1.3c0.5,0.3,1,0.5,1.7,0.7C135.8,55.8,136.5,55.8,137.3,55.8z"/>
		<path d="M162.3,55.3c-0.2,0.1-0.4,0.3-0.7,0.5s-0.7,0.3-1.2,0.5s-1,0.3-1.6,0.5c-0.6,0.1-1.3,0.2-2,0.2c-1.2,0-2.3-0.2-3.4-0.6
			c-1.1-0.4-2.1-0.9-2.9-1.7c-0.8-0.8-1.5-1.8-2-3.1c-0.5-1.2-0.7-2.8-0.7-4.5c0-1.4,0.2-2.8,0.7-4c0.4-1.2,1.1-2.3,1.9-3.2
			c0.8-0.9,1.8-1.6,3-2.1s2.5-0.8,4-0.8c1.9,0,3.4,0.1,4.5,0.4c1.1,0.2,2.1,0.5,2.8,0.7v18.6c0,3-0.8,5.2-2.4,6.5
			c-1.6,1.3-3.9,1.9-7.1,1.9c-1.3,0-2.5-0.1-3.6-0.3c-1.1-0.2-2-0.4-2.7-0.7l0.5-2.3c0.6,0.3,1.5,0.5,2.6,0.7s2.2,0.3,3.3,0.3
			c2.4,0,4.2-0.5,5.3-1.4s1.6-2.5,1.6-4.8L162.3,55.3L162.3,55.3z M162.2,39.8c-0.4-0.1-1-0.3-1.7-0.4c-0.7-0.1-1.7-0.2-3-0.2
			c-1.1,0-2.1,0.2-2.9,0.6c-0.9,0.4-1.6,0.9-2.2,1.6s-1.1,1.5-1.4,2.5c-0.3,1-0.5,2-0.5,3.2c0,1.3,0.2,2.5,0.6,3.4
			c0.4,1,0.8,1.7,1.4,2.3c0.6,0.6,1.3,1,2,1.3c0.8,0.3,1.5,0.4,2.3,0.4c1.2,0,2.2-0.2,3.2-0.5s1.7-0.7,2.2-1.2L162.2,39.8
			L162.2,39.8z"/>
		<path d="M168.4,47.5c0-1.8,0.3-3.3,0.8-4.7c0.5-1.3,1.2-2.4,2-3.3c0.8-0.9,1.8-1.6,2.8-2c1.1-0.4,2.2-0.6,3.3-0.6
			c2.5,0,4.5,0.8,6,2.4c1.5,1.6,2.2,4.1,2.2,7.5c0,0.2,0,0.4,0,0.6c0,0.2,0,0.4-0.1,0.6h-14.3c0.1,2.5,0.7,4.4,1.8,5.7s3,2,5.5,2
			c1.4,0,2.5-0.1,3.3-0.4c0.8-0.3,1.4-0.5,1.8-0.7l0.5,2.2c-0.4,0.2-1.1,0.5-2.1,0.7c-1,0.3-2.2,0.4-3.6,0.4c-1.8,0-3.3-0.3-4.6-0.8
			s-2.3-1.3-3.1-2.2s-1.4-2.1-1.8-3.4C168.5,50.5,168.4,49,168.4,47.5z M182.8,45.9c-0.1-2.1-0.6-3.8-1.5-5s-2.3-1.8-4-1.8
			c-0.9,0-1.7,0.2-2.5,0.6c-0.7,0.4-1.4,0.9-1.9,1.5s-1,1.3-1.3,2.1s-0.5,1.7-0.5,2.6C171.1,45.9,182.8,45.9,182.8,45.9z"/>
		<path d="M214.9,44c0,2.3-0.3,4.4-1,6.2s-1.6,3.3-2.9,4.4c-1.2,1.2-2.6,2.1-4.3,2.7c-1.7,0.6-3.5,0.9-5.4,0.9s-3.6-0.3-5.3-0.9
			c-1.7-0.6-3.1-1.5-4.3-2.7s-2.2-2.7-2.9-4.4c-0.7-1.8-1.1-3.8-1.1-6.2c0-2.3,0.4-4.4,1.1-6.2c0.7-1.8,1.7-3.3,3-4.5
			c1.2-1.2,2.7-2.1,4.3-2.7s3.4-0.9,5.2-0.9c1.9,0,3.6,0.3,5.3,0.9s3.1,1.5,4.3,2.7s2.2,2.7,2.9,4.5C214.6,39.6,214.9,41.7,214.9,44
			z M194.1,44c0,1.3,0.2,2.5,0.5,3.6s0.8,2,1.4,2.8c0.6,0.8,1.4,1.4,2.3,1.8c0.9,0.4,1.9,0.6,3.1,0.6c1.1,0,2.1-0.2,3-0.6
			c0.9-0.4,1.7-1,2.3-1.8s1.1-1.7,1.4-2.8c0.3-1.1,0.5-2.3,0.5-3.6s-0.2-2.6-0.5-3.6s-0.8-2-1.4-2.8c-0.6-0.8-1.4-1.4-2.3-1.8
			s-1.9-0.6-3-0.6c-1.2,0-2.2,0.2-3.1,0.6c-0.9,0.4-1.6,1-2.3,1.8c-0.6,0.8-1.1,1.7-1.4,2.8S194.1,42.7,194.1,44z"/>
		<path d="M236.9,47.3c0,1.6-0.2,3.1-0.6,4.4c-0.4,1.3-1,2.4-1.7,3.4s-1.7,1.7-2.8,2.2s-2.4,0.8-3.9,0.8c-0.8,0-1.6-0.1-2.3-0.2
			c-0.7-0.2-1.4-0.4-2-0.7V65h-5.9V37.7c0.5-0.2,1.1-0.3,1.8-0.5c0.7-0.1,1.4-0.3,2.1-0.4c0.7-0.1,1.5-0.2,2.3-0.3s1.5-0.1,2.2-0.1
			c1.7,0,3.2,0.3,4.6,0.8c1.3,0.5,2.5,1.2,3.4,2.2c0.9,0.9,1.6,2.1,2.1,3.4C236.7,44.2,236.9,45.7,236.9,47.3z M230.9,47.5
			c0-1.8-0.4-3.3-1.2-4.3s-2-1.6-3.6-1.6c-0.5,0-1,0-1.5,0.1c-0.4,0-0.8,0.1-1.1,0.1v10.6c0.4,0.2,0.8,0.4,1.4,0.6
			c0.6,0.2,1.2,0.2,1.8,0.2C229.5,53.1,230.9,51.2,230.9,47.5z"/>
		<path d="M245.4,53.5c1.1,0,1.8-0.1,2.3-0.3c0.4-0.2,0.7-0.6,0.7-1.2c0-0.5-0.3-0.9-0.9-1.2c-0.6-0.4-1.5-0.8-2.6-1.2
			c-0.9-0.3-1.8-0.7-2.5-1.1c-0.7-0.4-1.4-0.8-1.9-1.3s-0.9-1.1-1.2-1.8s-0.4-1.6-0.4-2.6c0-1.9,0.7-3.5,2.2-4.6
			c1.4-1.1,3.4-1.7,5.9-1.7c1.3,0,2.5,0.1,3.6,0.3c1.2,0.2,2.1,0.5,2.8,0.7l-1,4.6c-0.7-0.2-1.4-0.4-2.2-0.6
			c-0.8-0.2-1.7-0.3-2.7-0.3c-1.8,0-2.8,0.5-2.8,1.5c0,0.2,0,0.4,0.1,0.6s0.2,0.4,0.5,0.5c0.2,0.2,0.6,0.4,1,0.6
			c0.4,0.2,0.9,0.4,1.6,0.7c1.3,0.5,2.3,0.9,3.2,1.4c0.8,0.5,1.5,1,2,1.5s0.8,1.1,1,1.8s0.3,1.4,0.3,2.3c0,2-0.8,3.6-2.3,4.6
			s-3.7,1.6-6.5,1.6c-1.8,0-3.4-0.2-4.6-0.5c-1.2-0.3-2.1-0.6-2.5-0.8l1-4.8c1,0.4,2,0.7,3.1,0.9C243.4,53.4,244.4,53.5,245.4,53.5z
			"/>
	</g>
	<polygon class="st0" points="69.2,65.8 68.7,66.1 68.2,65.8 62.9,62.7 62.4,62.4 62.4,62.4 36.9,77.2 12.3,62.9 7,66 7,72.1 
		34.7,88.1 34.7,88.1 36.9,89.4 74,68 74,63 	"/>
	<g>
		<polygon class="st0" points="38.1,5.5 38.1,6.1 38.1,12.2 38.1,12.8 61.1,26.3 71.7,20.2 53.2,9.4 39.6,1.5 37.1,0 32.7,2.5 
			37.6,5.2 		"/>
		<polygon class="st0" points="63.5,42.7 63.4,59.6 68.7,62.7 74,59.6 74.1,36.5 		"/>
	</g>
	<g>
		<polygon class="st0" points="12.9,26.2 35.6,13 35.6,6.9 30.2,3.9 2.4,20.1 		"/>
		<polygon class="st0" points="0,36.5 0,41.3 0,65.1 0,68 4.3,70.5 4.3,64.9 4.3,64.4 4.8,64.1 10.1,61 10.6,60.7 10.6,60.7 
			10.6,42.7 		"/>
	</g>
	<polygon class="st1" points="0,21.5 0,33.8 37,55.3 74.1,33.7 74.1,21.6 37,43 	"/>
</g>
</svg>
